<svg width="1827" height="272" viewBox="0 0 1827 272" fill="none" xmlns="http://www.w3.org/2000/svg">
<path d="M129.792 0C163.542 0 192.776 12.8229 217.5 38.4583C242.234 64.0833 254.604 96.0729 254.604 134.417C254.604 173.906 242.135 206.688 217.208 232.771C192.292 258.844 162.13 271.875 126.729 271.875C90.9375 271.875 60.8646 259.161 36.5208 233.729C12.1719 208.286 0 175.37 0 134.979C0 93.7031 14.0521 60.0208 42.1667 33.9375C66.5833 11.3125 95.7917 0 129.792 0ZM126.146 14C102.88 14 84.2188 22.6354 70.1667 39.8958C52.651 61.3698 43.8958 92.8073 43.8958 134.208C43.8958 176.656 52.9688 209.312 71.125 232.188C85.0521 249.578 103.458 258.271 126.333 258.271C150.75 258.271 170.917 248.75 186.833 229.708C202.75 210.656 210.708 180.615 210.708 139.583C210.708 95.099 201.948 61.9323 184.438 40.0833C170.38 22.6979 150.948 14 126.146 14Z" fill="white"/>
<path d="M387.095 121.75L482.97 217.042C498.688 232.766 512.105 243.474 523.22 249.167C534.345 254.849 545.47 258.073 556.595 258.833V265.938H432.928V258.833C440.345 258.833 445.678 257.594 448.928 255.104C452.188 252.62 453.824 249.844 453.824 246.771C453.824 243.703 453.209 240.953 451.99 238.521C450.782 236.094 446.787 231.557 440.011 224.917L350.282 136.125V219.917C350.282 233.083 351.115 241.781 352.782 246C354.058 249.198 356.74 251.948 360.824 254.25C366.324 257.307 372.141 258.833 378.282 258.833H387.095V265.938H276.282V258.833H285.49C296.225 258.833 304.016 255.708 308.865 249.458C311.933 245.365 313.47 235.516 313.47 219.917V51.9583C313.47 38.7917 312.641 30.0365 310.99 25.6875C309.709 22.6354 307.084 19.9531 303.115 17.6458C297.49 14.5781 291.615 13.0417 285.49 13.0417H276.282V5.95834H387.095V13.0417H378.282C372.266 13.0417 366.449 14.5156 360.824 17.4583C356.865 19.5 354.115 22.5729 352.574 26.6667C351.042 30.75 350.282 39.1823 350.282 51.9583V131.542C352.834 129.115 361.595 120.995 376.553 107.188C414.511 72.4271 437.454 49.224 445.386 37.5833C448.845 32.474 450.574 28 450.574 24.1667C450.574 21.224 449.225 18.6354 446.532 16.3958C443.85 14.1615 439.313 13.0417 432.928 13.0417H426.99V5.95834H522.47V13.0417C516.845 13.1667 511.725 13.9375 507.115 15.3542C502.516 16.7604 496.891 19.474 490.24 23.5C483.6 27.5313 475.428 34.0156 465.72 42.9583C462.897 45.5156 449.917 58.6146 426.782 82.25L387.095 121.75Z" fill="white"/>
<path d="M674.502 258.833V265.938H563.106V258.833H572.314C583.048 258.833 590.845 255.708 595.71 249.458C598.778 245.365 600.314 235.516 600.314 219.917V51.9583C600.314 38.7917 599.481 30.1042 597.814 25.8958C596.533 22.7031 593.918 19.9531 589.96 17.6458C584.335 14.5781 578.449 13.0417 572.314 13.0417H563.106V5.95834H674.502V13.0417H665.106C654.507 13.0417 646.778 16.1771 641.918 22.4375C638.72 26.5365 637.127 36.375 637.127 51.9583V219.917C637.127 233.083 637.949 241.781 639.606 246C640.882 249.198 643.569 251.948 647.668 254.25C653.168 257.307 658.981 258.833 665.106 258.833H674.502Z" fill="white"/>
<path d="M678.93 5.95834H749.472L908.43 200.938V51C908.43 35.0313 906.639 25.0625 903.055 21.1042C898.316 15.7292 890.837 13.0417 880.618 13.0417H871.618V5.95834H962.118V13.0417H952.91C941.91 13.0417 934.107 16.3698 929.514 23.0208C926.706 27.1042 925.305 36.4323 925.305 51V270.146H918.389L746.993 60.7917V220.875C746.993 236.865 748.712 246.833 752.16 250.792C757.019 256.156 764.498 258.833 774.597 258.833H783.805V265.938H693.305V258.833H702.305C713.43 258.833 721.29 255.516 725.889 248.875C728.706 244.781 730.118 235.448 730.118 220.875V40.0833C722.576 31.2656 716.852 25.4531 712.951 22.6458C709.045 19.8281 703.326 17.2031 695.785 14.7708C692.087 13.6198 686.472 13.0417 678.93 13.0417V5.95834Z" fill="white"/>
<path d="M1147.32 178.896H1046.67L1029.02 219.917C1024.68 230.016 1022.5 237.557 1022.5 242.542C1022.5 246.516 1024.38 250 1028.15 253C1031.93 256 1040.08 257.948 1052.61 258.833V265.938H970.733V258.833C981.608 256.917 988.639 254.432 991.837 251.375C998.348 245.24 1005.57 232.771 1013.5 213.979L1104.94 0H1111.67L1202.15 216.271C1209.44 233.661 1216.06 244.948 1222 250.125C1227.95 255.292 1236.22 258.198 1246.84 258.833V265.938H1144.25V258.833C1154.61 258.333 1161.61 256.615 1165.25 253.667C1168.89 250.724 1170.71 247.146 1170.71 242.938C1170.71 237.312 1168.16 228.427 1163.05 216.271L1147.32 178.896ZM1141.96 164.708L1097.86 59.625L1052.61 164.708H1141.96Z" fill="white"/>
<path d="M1587.34 5.95834V13.0417C1580.58 13.0417 1575.08 14.2604 1570.86 16.6875C1566.64 19.1198 1562.61 23.6563 1558.78 30.2917C1556.22 34.7656 1552.2 45.4375 1546.7 62.3125L1474.24 271.875H1466.55L1407.32 105.646L1348.45 271.875H1341.55L1264.28 56C1258.53 39.8906 1254.89 30.3646 1253.36 27.4167C1250.79 22.5729 1247.3 18.9688 1242.88 16.6042C1238.48 14.2292 1232.51 13.0417 1224.97 13.0417V5.95834H1321.22V13.0417H1316.63C1309.85 13.0417 1304.68 14.5781 1301.09 17.6458C1297.51 20.7188 1295.72 24.4271 1295.72 28.7708C1295.72 33.2448 1298.53 43.5313 1304.15 59.625L1355.36 205.542L1398.49 81.5L1384.7 42.1875C1382 35.8021 1378.99 30.1771 1375.68 25.3125C1374.02 22.8854 1371.98 20.8438 1369.55 19.1875C1366.35 16.8854 1363.15 15.2188 1359.95 14.1875C1357.53 13.4271 1353.7 13.0417 1348.45 13.0417V5.95834H1449.7V13.0417H1442.78C1435.62 13.0417 1430.38 14.5781 1427.05 17.6458C1423.73 20.7188 1422.07 24.8698 1422.07 30.1042C1422.07 36.6354 1424.95 48.0104 1430.7 64.2292L1480.55 205.542L1530.03 62.3125C1535.65 46.4688 1538.47 35.474 1538.47 29.3333C1538.47 26.4063 1537.53 23.6615 1535.68 21.1042C1533.83 18.5521 1531.49 16.7604 1528.68 15.7292C1523.83 13.9375 1517.5 13.0417 1509.7 13.0417V5.95834H1587.34Z" fill="white"/>
<path d="M1726.54 178.896H1625.9L1608.25 219.917C1603.9 230.016 1601.73 237.557 1601.73 242.542C1601.73 246.516 1603.61 250 1607.38 253C1611.15 256 1619.3 257.948 1631.83 258.833V265.938H1549.96V258.833C1560.83 256.917 1567.87 254.432 1571.06 251.375C1577.57 245.24 1584.8 232.771 1592.73 213.979L1684.17 0H1690.9L1781.38 216.271C1788.67 233.661 1795.28 244.948 1801.23 250.125C1807.17 255.292 1815.45 258.198 1826.06 258.833V265.938H1723.48V258.833C1733.84 258.333 1740.84 256.615 1744.48 253.667C1748.12 250.724 1749.94 247.146 1749.94 242.938C1749.94 237.312 1747.38 228.427 1742.27 216.271L1726.54 178.896ZM1721.19 164.708L1677.08 59.625L1631.83 164.708H1721.19Z" fill="white"/>
</svg>
